<?xml version="1.0" standalone="no"?>
<!DOCTYPE svg PUBLIC "-//W3C//DTD SVG 20010904//EN"
 "http://www.w3.org/TR/2001/REC-SVG-20010904/DTD/svg10.dtd">
<svg version="1.0" xmlns="http://www.w3.org/2000/svg"
 width="11471.000000pt" height="7646.000000pt" viewBox="0 0 11471.000000 7646.000000"
 preserveAspectRatio="xMidYMid meet">

<g transform="translate(0.000000,7646.000000) scale(0.100000,-0.100000)"
fill="#000000" stroke="none">
<path d="M0 38230 l0 -38230 57355 0 57355 0 0 38230 0 38230 -57355 0 -57355
0 0 -38230z m58670 19478 c0 -4 43 -6 95 -3 52 3 95 1 95 -3 0 -5 25 -8 55 -7
31 1 58 -1 60 -5 3 -4 16 -6 30 -5 14 2 25 -1 25 -6 0 -6 5 -7 10 -4 6 4 17 1
25 -5 8 -7 22 -10 30 -6 9 3 18 -1 21 -9 3 -7 11 -12 19 -9 7 3 20 -2 29 -11
9 -9 16 -13 16 -8 0 4 5 0 11 -10 6 -9 15 -15 20 -11 13 7 89 -42 89 -58 0 -6
3 -8 6 -5 11 10 45 -13 38 -25 -4 -7 -3 -8 4 -4 7 4 12 2 12 -4 0 -6 4 -9 9
-6 8 5 39 -22 40 -36 1 -5 4 -8 7 -7 11 2 64 -55 64 -68 0 -7 6 -12 13 -10 6
1 11 -4 10 -10 -2 -7 2 -13 8 -13 5 0 7 -5 3 -12 -4 -6 -3 -8 3 -5 14 9 37
-19 27 -34 -4 -8 -3 -9 4 -5 10 6 41 -39 43 -61 0 -5 7 -15 15 -24 8 -9 16
-28 18 -41 1 -13 6 -29 10 -36 13 -22 34 -511 35 -832 0 -124 3 -283 6 -355 9
-248 15 -2136 21 -7330 l6 -5220 -104 -180 c-181 -310 -1426 -2465 -1613
-2790 -204 -356 -3574 -6193 -4708 -8155 -2554 -4420 -5512 -9545 -6710
-11625 -882 -1533 -1003 -1737 -981 -1665 4 14 160 381 346 815 187 435 578
1344 868 2020 291 677 783 1821 1094 2544 311 723 564 1317 561 1319 -3 3
-290 11 -637 18 -1584 32 -2054 50 -2588 99 -1111 103 -2204 403 -3090 851
-840 424 -1583 1026 -2175 1764 -163 202 -393 531 -387 551 1 5 -2 9 -7 9 -12
0 -114 168 -114 187 0 7 -3 11 -5 8 -7 -6 -94 145 -96 166 0 8 -9 23 -18 33
-10 10 -18 28 -18 42 0 15 -6 24 -15 24 -13 0 -20 19 -16 43 1 5 -3 6 -8 3
-11 -7 -26 31 -22 54 2 8 0 12 -5 8 -7 -8 -34 35 -34 54 0 5 -7 16 -15 24 -8
8 -12 21 -9 28 3 7 -2 16 -10 19 -10 4 -16 18 -16 36 0 17 -6 34 -14 38 -7 4
-19 19 -26 32 -7 14 -8 21 -1 17 7 -5 9 -1 5 8 -3 9 -10 16 -14 16 -10 0 -21
27 -25 59 -5 38 -27 81 -37 74 -6 -3 -9 0 -6 8 3 8 -1 20 -8 27 -7 7 -11 18
-8 26 3 7 -2 19 -11 26 -8 7 -15 21 -15 32 0 11 -6 26 -14 34 -8 8 -12 23 -9
35 5 17 3 20 -7 14 -8 -5 -11 -4 -7 2 8 12 -21 103 -33 103 -4 0 -7 12 -7 27
-1 14 -8 32 -17 38 -8 7 -13 15 -10 18 3 3 -28 108 -69 234 -192 584 -323
1176 -386 1748 -77 694 -94 1296 -93 3315 1 1617 14 2822 32 3060 15 195 26
244 75 345 89 180 217 311 380 390 106 52 175 70 310 85 214 22 1231 32 2815
27 1602 -5 1838 -10 2000 -43 96 -19 254 -97 340 -167 166 -135 283 -340 304
-532 20 -176 28 -725 37 -2530 5 -1094 12 -2051 14 -2125 3 -74 6 -192 6 -262
1 -71 4 -126 8 -124 4 3 7 -38 6 -90 0 -52 3 -94 6 -94 3 0 4 -29 3 -65 -1
-36 2 -68 7 -71 5 -3 9 -20 9 -37 0 -18 6 -75 14 -127 7 -52 12 -99 9 -103 -3
-4 3 -24 12 -44 9 -19 15 -46 12 -59 -2 -13 0 -25 5 -26 5 -2 10 -23 11 -46 1
-23 6 -42 10 -42 5 0 7 -10 6 -22 -2 -13 2 -32 8 -43 6 -11 16 -45 23 -75 19
-83 93 -293 140 -400 104 -236 258 -448 440 -608 239 -209 580 -378 993 -491
196 -54 306 -69 587 -80 606 -25 4057 -18 4340 9 274 26 622 131 904 272 629
315 955 843 1101 1783 10 67 19 232 25 500 15 645 29 4888 35 10915 7 6373 21
11203 35 11863 l9 448 29 84 c110 317 386 525 766 575 44 6 252 15 461 20 469
10 3985 8 3985 -2z m16766 -6938 c231 -11 341 -28 419 -64 129 -59 252 -162
332 -278 63 -92 86 -136 119 -235 25 -74 27 -93 35 -363 21 -701 28 -7303 18
-18633 l-10 -11719 -74 -139 c-41 -77 -88 -159 -104 -183 -62 -90 -150 -151
-400 -275 l-123 -62 -2287 4 c-2580 5 -2562 5 -2753 78 -249 96 -458 343 -494
581 -43 289 -51 1328 -80 10260 l-7 2056 -117 117 -116 116 -4300 2 c-4711 2
-4622 3 -4740 -52 -120 -56 -193 -149 -214 -271 -29 -173 -31 -520 -40 -5595
-5 -3238 -12 -5370 -19 -5670 -19 -803 -40 -1038 -106 -1183 -66 -144 -354
-358 -540 -401 -132 -31 -275 -33 -2155 -38 -2843 -7 -2910 -3 -3142 184 -110
87 -187 188 -286 369 l-60 109 -10 6019 -11 6019 1111 1926 c611 1059 1722
2984 2468 4276 746 1293 1593 2760 1882 3260 289 501 741 1284 1005 1740 264
457 886 1534 1383 2395 1016 1761 1622 2807 2000 3455 318 544 332 567 337
562 9 -10 -226 -562 -2260 -5305 l-1606 -3744 13 -1150 13 -1150 114 -114 115
-115 3349 -10 c3289 -10 5276 -3 5586 20 130 10 165 23 241 91 31 27 51 54 57
78 40 145 54 1843 81 9601 l10 2764 51 110 c88 189 162 297 268 392 129 114
282 148 738 164 315 12 4074 12 4309 1z"/>
</g>
</svg>
